<?xml version="1.0" encoding="UTF-8"?>
<svg version="1.1" xmlns="http://www.w3.org/2000/svg" width="508" height="491">
<path d="M0 0 C1.01205347 0.98779946 2.01763828 1.98266748 3 3 C1.7232018 6.8303946 -0.5584757 8.2029706 -3.6875 10.5 C-4.87952338 11.39501199 -6.07090835 12.29087477 -7.26171875 13.1875 C-7.87966309 13.65027344 -8.49760742 14.11304688 -9.13427734 14.58984375 C-12.12401257 16.84955464 -15.06070148 19.17530835 -18 21.5 C-25.93252 27.75275755 -33.90532519 33.95804177 -42 40 C-45.18658652 38.54761023 -47.69484689 36.72870057 -50.4375 34.5625 C-64.37451783 24.37418736 -80.23373366 17.04935342 -97 13 C-98.08563232 12.73509766 -99.17126465 12.47019531 -100.28979492 12.19726562 C-110.12809121 10.00068744 -119.51585711 9.44058236 -129.5625 9.5 C-130.34725708 9.50143005 -131.13201416 9.50286011 -131.94055176 9.5043335 C-145.15006003 9.56369077 -157.37419057 10.89586251 -170 15 C-170.71945801 15.22461914 -171.43891602 15.44923828 -172.18017578 15.68066406 C-205.10920592 26.17578988 -232.83819688 49.58585474 -249.00390625 80.06640625 C-258.85702492 99.24371133 -264.38012926 118.90859736 -264.31567383 140.47729492 C-264.31252941 142.66701873 -264.33600254 144.85536539 -264.36132812 147.04492188 C-264.42068472 160.07172785 -262.60853144 172.64834612 -258.3125 185 C-258.05831299 185.74217773 -257.80412598 186.48435547 -257.54223633 187.24902344 C-245.22889539 221.93719012 -219.97775688 249.21135469 -186.88427734 265.12548828 C-155.18963291 279.83528569 -117.85929055 281.00592249 -84.91796875 269.70458984 C-79.7776495 267.81622918 -74.89086336 265.44871414 -70 263 C-69.15308594 262.61199219 -68.30617188 262.22398437 -67.43359375 261.82421875 C-61.08675217 258.85964267 -55.55798151 255.0566253 -49.8828125 250.98828125 C-47.61604897 249.42489015 -45.49905819 248.12880165 -43 247 C-43 246.34 -43 245.68 -43 245 C-41.42578125 243.44921875 -41.42578125 243.44921875 -39.3125 241.6875 C-36.05002238 238.90599155 -32.89456758 236.1659333 -30 233 C-30 232.34 -30 231.68 -30 231 C-31.83007635 229.427431 -31.83007635 229.427431 -34.3125 227.75 C-35.79363281 226.70005859 -35.79363281 226.70005859 -37.3046875 225.62890625 C-38.16271973 225.02199951 -38.16271973 225.02199951 -39.03808594 224.40283203 C-43.03757152 221.54307044 -46.98267065 218.60852242 -50.9375 215.6875 C-51.76612549 215.07680664 -52.59475098 214.46611328 -53.44848633 213.83691406 C-55.63356672 212.22626777 -57.81858143 210.61560244 -60 209 C-60.74580322 208.48284424 -61.49160645 207.96568848 -62.26000977 207.43286133 C-62.83420654 206.96001709 -63.40840332 206.48717285 -64 206 C-64 205.34 -64 204.68 -64 204 C-62.81897705 203.65332275 -61.6379541 203.30664551 -60.42114258 202.94946289 C-30.75930584 194.24010725 -30.75930584 194.24010725 -1.20385742 185.1784668 C8.55231199 182.12540594 18.33787921 179.17703781 28.13330078 176.25317383 C34.07126202 174.48027837 40.00564492 172.69784002 45.9296875 170.87890625 C47.00041504 170.55035645 48.07114258 170.22180664 49.17431641 169.88330078 C51.1747213 169.26815802 53.17443629 168.65076571 55.17333984 168.03076172 C56.04941895 167.76150879 56.92549805 167.49225586 57.828125 167.21484375 C58.5902832 166.97886475 59.35244141 166.74288574 60.13769531 166.49975586 C62 166 62 166 64 166 C63.44808336 178.86753199 61.86370937 191.4973025 60.09375 204.24609375 C59.80557338 206.35393547 59.5179454 208.46185227 59.23083496 210.56983948 C58.48002763 216.07258832 57.72252185 221.57439292 56.96331787 227.07598877 C55.89275616 234.84323768 54.83157955 242.61177558 53.76916504 250.38014221 C53.20499724 254.50508848 52.63837957 258.6296862 52.06970215 262.75401306 C51.81013468 264.64256722 51.55057224 266.53112208 51.29101562 268.41967773 C51.17462234 269.25985443 51.05822906 270.10003113 50.93830872 270.96566772 C50.82899521 271.76267593 50.7196817 272.55968414 50.60705566 273.38084412 C50.44974724 274.52369527 50.44974724 274.52369527 50.28926086 275.68963432 C49.89449667 278.84266938 49.62166081 282.00535304 49.36867523 285.1727457 C49 287 49 287 47 289 C45.2699694 287.70949069 43.54104644 286.41749656 41.8125 285.125 C41.27947266 284.72659912 40.74644531 284.32819824 40.19726562 283.91772461 C37.26219911 281.71770604 34.34386858 279.49908423 31.44921875 277.24609375 C30.87260498 276.7979834 30.29599121 276.34987305 29.7019043 275.88818359 C28.58779167 275.02035522 27.47588104 274.14969071 26.36645508 273.27587891 C23.68820515 271.19134628 21.11335245 269.36957572 18 268 C17.11248047 268.99580078 17.11248047 268.99580078 16.20703125 270.01171875 C7.1316726 280.15302491 7.1316726 280.15302491 4 283 C3.34 283 2.68 283 2 283 C2 283.66 2 284.32 2 285 C-0.06710646 286.79249816 -2.14018456 288.46831539 -4.3125 290.125 C-4.94897461 290.61637451 -5.58544922 291.10774902 -6.24121094 291.61401367 C-8.15431476 293.08476612 -10.07532373 294.54443501 -12 296 C-12.99902344 296.75667969 -13.99804688 297.51335937 -15.02734375 298.29296875 C-55.06391642 327.99011089 -107.16951372 339.54680986 -156.29833984 332.45410156 C-193.45317931 326.20902643 -227.86615331 310.82835997 -255.6640625 285.14453125 C-258.56941889 282.47723918 -261.57592774 279.93949124 -264.6015625 277.41015625 C-266 276 -266 276 -266 274 C-266.66 274 -267.32 274 -268 274 C-271.22952945 270.53149903 -274.08424833 266.73408764 -277 263 C-277.763125 262.02804687 -278.52625 261.05609375 -279.3125 260.0546875 C-284.73415388 252.99524235 -289.53422326 245.69747204 -294 238 C-294.65871094 236.87207031 -295.31742188 235.74414062 -295.99609375 234.58203125 C-320.07347314 192.14601666 -324.94653272 139.9348539 -312.5078125 93.09375 C-302.14880801 56.81620789 -279.86117136 18.70721639 -249 -4 C-248.34 -4 -247.68 -4 -247 -4 C-247 -4.66 -247 -5.32 -247 -6 C-244.6387296 -7.80050657 -242.27758962 -9.47696561 -239.8125 -11.125 C-239.07999023 -11.6185498 -238.34748047 -12.11209961 -237.59277344 -12.62060547 C-235.40095333 -14.08928702 -233.20108052 -15.54524815 -231 -17 C-229.92621094 -17.721875 -228.85242188 -18.44375 -227.74609375 -19.1875 C-157.97818688 -64.30468619 -61.56565145 -54.02470328 0 0 Z " fill="#0366FD" transform="translate(375,96)"/>
<path d="M0 0 C-0.14064186 4.43768016 -0.28847434 8.8750941 -0.4375 13.3125 C-0.47681641 14.55580078 -0.51613281 15.79910156 -0.55664062 17.08007812 C-0.59853516 18.30791016 -0.64042969 19.53574219 -0.68359375 20.80078125 C-0.73858032 22.47394409 -0.73858032 22.47394409 -0.79467773 24.1809082 C-1.06098785 29.13440303 -1.52391416 34.06283557 -2 39 C-9.85100094 41.00173029 -17.70246651 43.0016248 -25.55448437 44.99936199 C-29.20296319 45.92767763 -32.85129633 46.85655681 -36.49926758 47.78686523 C-52.96950808 51.98665256 -69.44326284 56.15142713 -86 60 C-86.78568863 60.18271454 -87.57137726 60.36542908 -88.38087463 60.55368042 C-89.86847675 60.89943393 -91.35613487 61.24494663 -92.84387207 61.59011841 C-99.94813686 63.24236486 -106.99721592 65.04091374 -114.0390625 66.9453125 C-121.02540483 68.8212422 -128.05528807 70.52999743 -135.07568359 72.27294922 C-140.55191282 73.63446288 -146.02574247 75.0055847 -151.5 76.375 C-153.90624038 76.976601 -156.31249048 77.5781631 -158.71875 78.1796875 C-159.92402344 78.48100586 -161.12929688 78.78232422 -162.37109375 79.09277344 C-167.70117188 80.42529297 -167.70117188 80.42529297 -173.03125 81.7578125 C-174.18351074 82.04599854 -175.33577148 82.33418457 -176.52294922 82.63110352 C-178.83163875 83.20803274 -181.14055653 83.78404943 -183.44970703 84.35913086 C-188.90889036 85.71988713 -194.3652733 87.08964762 -199.81390381 88.49215698 C-201.75166492 88.99049446 -203.69028172 89.48550078 -205.62890625 89.98046875 C-208.06789701 90.60356858 -210.50548501 91.23219379 -212.94140625 91.8671875 C-214.04097656 92.14691406 -215.14054688 92.42664063 -216.2734375 92.71484375 C-217.23685059 92.96355225 -218.20026367 93.21226074 -219.19287109 93.46850586 C-222.18859097 94.0357073 -224.95814807 94.09247545 -228 94 C-228 91.03 -228 88.06 -228 85 C-226.22526042 84.32682292 -224.45052083 83.65364583 -222.67578125 82.98046875 C-221.51780029 82.5412207 -220.35981934 82.10197266 -219.16674805 81.64941406 C-216.55237638 80.65774859 -213.93794891 79.66623043 -211.32348633 78.67480469 C-204.88924736 76.23475498 -198.45544243 73.79359094 -192.0234375 71.34765625 C-178.83752647 66.33579965 -165.63841076 61.36126535 -152.42730713 56.41625977 C-139.32911034 51.51341707 -126.24290915 46.58584714 -113.1965332 41.54638672 C-105.80745373 38.69232625 -98.40755463 35.86825588 -91 33.0625 C-88.59374238 32.15106179 -86.1874929 31.23960208 -83.78125 30.328125 C-82.80178658 29.95712425 -82.80178658 29.95712425 -81.80253601 29.57862854 C-72.13674796 25.91645213 -62.47511011 22.24333802 -52.81298828 18.57150269 C-49.59281469 17.34777146 -46.37258177 16.12419643 -43.15234375 14.90063477 C-42.1255249 14.51032578 -41.09870605 14.12001678 -40.04077148 13.71788025 C-38.00674429 12.94512813 -35.97240586 12.17319471 -33.93774414 11.40211487 C-28.92901529 9.50236727 -23.92756826 7.58647015 -18.9375 5.63818359 C-17.4921991 5.07734322 -17.4921991 5.07734322 -16.0177002 4.50517273 C-14.20002928 3.79912978 -12.38438206 3.08784638 -10.57116699 2.37043762 C-9.76328735 2.05765366 -8.95540771 1.74486969 -8.12304688 1.42260742 C-7.42014526 1.14672287 -6.71724365 0.87083832 -5.99304199 0.58659363 C-4 0 -4 0 0 0 Z " fill="#36CB06" transform="translate(452,151)"/>
<path d="M0 0 C-1.35299059 9.52033541 -3.13618905 18.90609031 -5.125 28.3125 C-5.40526283 29.65032469 -5.68521225 30.98821508 -5.96484375 32.32617188 C-6.64016997 35.55143677 -7.31860077 38.77601371 -8 42 C-10.578125 42.2578125 -10.578125 42.2578125 -13.15625 42.515625 C-14.3014209 42.63019043 -15.4465918 42.74475586 -16.62646484 42.86279297 C-19.27779446 43.12782567 -21.92915639 43.39251326 -24.58056641 43.65673828 C-31.27940693 44.3248027 -37.97786525 44.99598399 -44.67480469 45.68287659 C-66.04592301 47.8739889 -87.42987306 49.86808448 -108.8302002 51.75280762 C-126.27091021 53.28941056 -143.69998491 54.92005464 -161.125 56.625 C-182.06545023 58.67275079 -203.0165911 60.45529177 -224 62 C-224 59.69 -224 57.38 -224 55 C-214.76504798 52.27137204 -205.51920961 49.87753088 -196.125 47.75 C-185.43002963 45.2968834 -174.76643004 42.73825749 -164.125 40.0625 C-163.46807159 39.89741943 -162.81114319 39.73233887 -162.13430786 39.56225586 C-158.78851343 38.72101 -155.44318584 37.87792658 -152.09814453 37.03369141 C-145.0881975 35.26475554 -138.0756664 33.50612323 -131.0625 31.75 C-130.37851135 31.57864532 -129.69452271 31.40729065 -128.98980713 31.23074341 C-121.20128047 29.28076276 -113.40798009 27.36569781 -105.58520508 25.55737305 C-98.13126232 23.82105138 -90.71459995 21.93580484 -83.29211426 20.07046509 C-66.3047178 15.80401315 -49.29088633 11.64543837 -32.27832031 7.48071289 C-31.16142822 7.20722015 -30.04453613 6.93372742 -28.89379883 6.65194702 C-26.80354164 6.14018696 -24.7132154 5.62870881 -22.62280273 5.11758423 C-21.6647876 4.88308563 -20.70677246 4.64858704 -19.71972656 4.40698242 C-18.79003052 4.17957367 -17.86033447 3.95216492 -16.90246582 3.71786499 C-14.82603351 3.20430233 -12.75161765 2.68255925 -10.67858887 2.15542603 C-9.59581665 1.88024139 -8.51304443 1.60505676 -7.39746094 1.3215332 C-6.41195251 1.06886185 -5.42644409 0.81619049 -4.41107178 0.55586243 C-2 0 -2 0 0 0 Z " fill="#34CB03" transform="translate(448,207)"/>
<path d="M0 0 C-1.26422764 2.52845528 -2.52845528 2.76422764 -5 4 C-5.33 4.66 -5.66 5.32 -6 6 C-0.02152997 8.13750778 5.08262906 8.11093741 11.375 7.6875 C12.28894531 7.63916016 13.20289063 7.59082031 14.14453125 7.54101562 C18.40896372 7.65396801 18.40896372 7.65396801 22 6 C24.83910292 5.7543084 27.65499167 5.57189898 30.5 5.4375 C31.34409424 5.3950415 32.18818848 5.35258301 33.05786133 5.30883789 C41.37403251 4.92339193 49.67719925 4.90409064 58 5 C58 5.33 58 5.66 58 6 C28.02044758 8.95940866 -1.95515961 11.7882282 -32 14 C-32 11.69 -32 9.38 -32 7 C-25.18598117 5.01425783 -18.36509376 3.05251834 -11.5 1.25 C-10.5821875 1.00765625 -9.664375 0.7653125 -8.71875 0.515625 C-5.75739877 -0.04601058 -3.00722665 -0.08844784 0 0 Z " fill="#44C719" transform="translate(256,255)"/>
<path d="M0 0 C0 0.33 0 0.66 0 1 C-3.3 1 -6.6 1 -10 1 C-10 0.34 -10 -0.32 -10 -1 C-12.64 -1 -15.28 -1 -18 -1 C-18 -1.66 -18 -2.32 -18 -3 C-19.05960937 -2.98839844 -20.11921875 -2.97679687 -21.2109375 -2.96484375 C-22.59895658 -2.95546524 -23.98697755 -2.94636511 -25.375 -2.9375 C-26.07367188 -2.92912109 -26.77234375 -2.92074219 -27.4921875 -2.91210938 C-32.7734375 -2.88671875 -32.7734375 -2.88671875 -35 -4 C-38.05067569 -4.09930951 -41.07806037 -4.13980351 -44.12890625 -4.1328125 C-45.03374252 -4.13376923 -45.9385788 -4.13472595 -46.87083435 -4.13571167 C-48.78490264 -4.13639273 -50.69897324 -4.13454361 -52.61303711 -4.13037109 C-55.55392604 -4.12501561 -58.49466267 -4.13032178 -61.43554688 -4.13671875 C-63.29166701 -4.13605808 -65.14778704 -4.13477714 -67.00390625 -4.1328125 C-67.88929581 -4.13483673 -68.77468536 -4.13686096 -69.68690491 -4.13894653 C-73.66035293 -4.52359376 -73.66035293 -4.52359376 -77 -3 C-83.03037619 -2.01321117 -88.89867013 -1.88747547 -95 -2 C-70.2066215 -15.73553169 -25.97887762 -7.42792292 0 0 Z " fill="#3277E1" transform="translate(302,56)"/>
<path d="M0 0 C-0.33 1.32 -0.66 2.64 -1 4 C-1.61488281 4.03738281 -2.22976563 4.07476562 -2.86328125 4.11328125 C-3.67152344 4.17902344 -4.47976562 4.24476563 -5.3125 4.3125 C-6.11300781 4.37050781 -6.91351563 4.42851562 -7.73828125 4.48828125 C-10.05886271 4.7945332 -10.05886271 4.7945332 -11.38671875 6.44921875 C-14.42015683 9.36513864 -18.95272638 9.39646175 -22.96875 10.15625 C-25.96808396 10.99111615 -27.1244446 11.58857163 -29 14 C-28.67 14.66 -28.34 15.32 -28 16 C-25.87423218 16.46651207 -25.87423218 16.46651207 -23.4375 16.625 C-22.61121094 16.69976562 -21.78492188 16.77453125 -20.93359375 16.8515625 C-20.29550781 16.90054688 -19.65742188 16.94953125 -19 17 C-19 16.34 -19 15.68 -19 15 C-14.05 14.67 -9.1 14.34 -4 14 C-4 14.33 -4 14.66 -4 15 C-8.03892479 16.01130015 -12.08153439 17.00702504 -16.125 18 C-17.83816406 18.42925781 -17.83816406 18.42925781 -19.5859375 18.8671875 C-20.69453125 19.13789063 -21.803125 19.40859375 -22.9453125 19.6875 C-23.96125488 19.93886719 -24.97719727 20.19023437 -26.02392578 20.44921875 C-29.08328319 21.0154132 -31.89605695 21.09712468 -35 21 C-35 18.03 -35 15.06 -35 12 C-34.13197754 11.67201416 -33.26395508 11.34402832 -32.36962891 11.00610352 C-29.1526735 9.78999003 -25.93607933 8.57293061 -22.71972656 7.35522461 C-21.32696696 6.82815113 -19.93406398 6.30145634 -18.54101562 5.77514648 C-16.53998709 5.01905985 -14.53947623 4.26161777 -12.5390625 3.50390625 C-11.33459473 3.04830322 -10.13012695 2.5927002 -8.88916016 2.12329102 C-3.42795045 0 -3.42795045 0 0 0 Z " fill="#39C70B" transform="translate(259,224)"/>
<path d="M0 0 C-1.32 0.33 -2.64 0.66 -4 1 C-4 1.66 -4 2.32 -4 3 C-4.639375 3.12375 -5.27875 3.2475 -5.9375 3.375 C-6.618125 3.58125 -7.29875 3.7875 -8 4 C-8.33 4.66 -8.66 5.32 -9 6 C-11 6 -11 6 -13.75 5.375 C-17.49282262 4.94313585 -19.46586637 5.79839456 -23 7 C-25.69362907 7.1707917 -28.29683942 7.09321243 -31 7 C-31 7.66 -31 8.32 -31 9 C-31.639375 9.28875 -32.27875 9.5775 -32.9375 9.875 C-35.15206079 10.82823451 -35.15206079 10.82823451 -36 13 C-36.886875 12.79375 -37.77375 12.5875 -38.6875 12.375 C-43.57597773 11.63371444 -48.20215422 12.72073405 -53.01171875 13.625 C-55.84503164 13.98055299 -57.32734532 13.77153247 -60 13 C-54.61506534 11.64748681 -49.22971012 10.29666425 -43.84399414 8.94726562 C-42.01999041 8.49002393 -40.19609333 8.03235651 -38.37231445 7.57421875 C-33.10196405 6.25046233 -27.82957191 4.93543287 -22.55401611 3.63256836 C-20.85716676 3.21229959 -19.16099057 2.78930306 -17.46551514 2.36352539 C-15.1025665 1.77096348 -12.73727885 1.18885674 -10.37109375 0.609375 C-9.6667067 0.43045715 -8.96231964 0.25153931 -8.23658752 0.06719971 C-4.95343778 -0.72533833 -3.27408097 -1.09136032 0 0 Z " fill="#51C829" transform="translate(352,232)"/>
<path d="M0 0 C0.33 0 0.66 0 1 0 C1.05524131 1.95799743 1.093338 3.91647937 1.125 5.875 C1.14820313 6.96554688 1.17140625 8.05609375 1.1953125 9.1796875 C1.04050127 12.20779516 0.68320091 14.59340432 0.0078125 17.50390625 C-1.44087442 24.31337865 -1.3017314 31.13132655 -1.25 38.0625 C-1.24822754 38.74642822 -1.24645508 39.43035645 -1.24462891 40.13500977 C-1.21638923 49.41391555 -0.83765906 58.5086795 0.5625 67.6875 C1.02129169 71.16120854 1.07142324 74.50026135 1 78 C-0.85941551 74.77167494 -1.42759536 71.98810942 -1.8515625 68.30078125 C-1.98095215 67.1830835 -2.1103418 66.06538574 -2.24365234 64.91381836 C-4.50866605 43.52379458 -5.74929251 21.04148078 0 0 Z " fill="#3A7BDF" transform="translate(60,201)"/>
<path d="M0 0 C1.82877114 0.01005087 3.65754762 0.01917299 5.48632812 0.02734375 C9.92851956 0.04918811 14.37044953 0.08360158 18.8125 0.125 C18.8125 0.785 18.8125 1.445 18.8125 2.125 C21.7825 2.455 24.7525 2.785 27.8125 3.125 C27.8125 3.785 27.8125 4.445 27.8125 5.125 C27.08289063 4.98352539 26.35328125 4.84205078 25.6015625 4.69628906 C16.73324327 3.13885893 8.14911279 2.81557379 -0.83496094 2.86425781 C-3.18450717 2.87498633 -5.53328916 2.86429439 -7.8828125 2.8515625 C-16.85630972 2.8444923 -25.35254673 3.41186198 -34.1875 5.125 C-27.16063483 -3.06716649 -9.83965526 -0.09448351 0 0 Z " fill="#357BE0" transform="translate(248.1875,102.875)"/>
<path d="M0 0 C1.32 0 2.64 0 4 0 C4 0.66 4 1.32 4 2 C4.66 2 5.32 2 6 2 C6.33 1.34 6.66 0.68 7 0 C7.99 0.33 8.98 0.66 10 1 C10.66964286 8.76785714 10.66964286 8.76785714 7.6875 12.5 C5 15 5 15 2 15 C1.91492188 15.60714844 1.82984375 16.21429688 1.7421875 16.83984375 C0.78030958 19.63941474 -0.32135309 20.14536628 -2.875 21.5625 C-5.67375951 23.13744769 -7.8034103 24.6557404 -10 27 C-12.4375 29.25 -12.4375 29.25 -15 31 C-17.16015625 30.609375 -17.16015625 30.609375 -19 30 C-17.58531689 29.03874097 -16.1681636 28.08111675 -14.75 27.125 C-13.56664062 26.32449219 -13.56664062 26.32449219 -12.359375 25.5078125 C-10.28444308 24.18177985 -8.22385028 23.05071825 -6 22 C-6 21.34 -6 20.68 -6 20 C-4.42578125 18.44921875 -4.42578125 18.44921875 -2.3125 16.6875 C0.94997762 13.90599155 4.10543242 11.1659333 7 8 C7 7.34 7 6.68 7 6 C5.43862664 4.67906764 5.43862664 4.67906764 3.5 3.4375 C2.31814682 2.64725293 1.14712722 1.839861 0 1 C0 0.67 0 0.34 0 0 Z " fill="#357DE5" transform="translate(338,321)"/>
<path d="M0 0 C0.33 1.65 0.66 3.3 1 5 C-0.04800781 5.09087891 -0.04800781 5.09087891 -1.1171875 5.18359375 C-2.02726562 5.26738281 -2.93734375 5.35117187 -3.875 5.4375 C-4.77992188 5.51871094 -5.68484375 5.59992188 -6.6171875 5.68359375 C-9.01110861 5.86989285 -9.01110861 5.86989285 -11 7 C-13.6723621 7.13415472 -16.32250488 7.04318541 -19 7 C-19 5.68 -19 4.36 -19 3 C-12.32783595 -0.75510682 -7.50881792 -1.44219467 0 0 Z " fill="#33CB03" transform="translate(244,260)"/>
<path d="M0 0 C0.53109375 0.16371094 1.0621875 0.32742187 1.609375 0.49609375 C4.53876764 1.11356377 7.25822936 1.09501925 10.25 1.0625 C11.32765625 1.05347656 12.4053125 1.04445312 13.515625 1.03515625 C14.74539063 1.01775391 14.74539063 1.01775391 16 1 C13.38905206 2.38288088 10.9366421 3.39487548 8.0769043 4.12915039 C7.31899094 4.32597916 6.56107758 4.52280792 5.78019714 4.7256012 C4.96972427 4.93087936 4.1592514 5.13615753 3.32421875 5.34765625 C2.4808345 5.56441513 1.63745026 5.78117401 0.76850891 6.00450134 C-1.01370472 6.46135592 -2.79650167 6.91594011 -4.57983398 7.3684082 C-7.29378813 8.05774722 -10.00537417 8.75585666 -12.71679688 9.45507812 C-14.45298993 9.89896614 -16.18931398 10.34234217 -17.92578125 10.78515625 C-18.73018143 10.99245865 -19.5345816 11.19976105 -20.36335754 11.41334534 C-24.9000018 12.55834975 -29.35539212 13.4273983 -34 14 C-34 13.34 -34 12.68 -34 12 C-32.68 12 -31.36 12 -30 12 C-30 11.34 -30 10.68 -30 10 C-29.02417969 9.87882813 -28.04835938 9.75765625 -27.04296875 9.6328125 C-25.77066406 9.46523437 -24.49835938 9.29765625 -23.1875 9.125 C-21.92292969 8.96257812 -20.65835937 8.80015625 -19.35546875 8.6328125 C-15.88300683 8.20431547 -15.88300683 8.20431547 -13 6 C-10.9140625 5.65625 -10.9140625 5.65625 -8.625 5.5 C-5.08633345 5.18250137 -2.23286312 4.56428861 1 3 C0.505 1.515 0.505 1.515 0 0 Z " fill="#61C93F" transform="translate(414,193)"/>
<path d="M0 0 C0.66 0.33 1.32 0.66 2 1 C1.01 1.33 0.02 1.66 -1 2 C-1 3.32 -1 4.64 -1 6 C0.27617187 5.68289063 1.55234375 5.36578125 2.8671875 5.0390625 C10.86932936 3.43863413 18.99445497 3.5326833 27.125 3.375 C28.76564391 3.33673992 30.40626946 3.29768379 32.046875 3.2578125 C36.03109768 3.1626968 40.01541389 3.07835397 44 3 C44 3.33 44 3.66 44 4 C28.70754133 5.90144327 13.37325122 6.97818313 -2 8 C-2 5.69 -2 3.38 -2 1 C-1.34 0.67 -0.68 0.34 0 0 Z " fill="#63C843" transform="translate(226,261)"/>
<path d="M0 0 C-1.47178435 10.78663007 -3.68722072 21.36795156 -6 32 C-6.33 32 -6.66 32 -7 32 C-5.58702532 12.27848101 -5.58702532 12.27848101 -3 4 C-3.99 4.165 -4.98 4.33 -6 4.5 C-10.02732942 5.08474517 -13.93474623 5.07132024 -18 5 C-14.72557244 3.18087358 -11.50729653 2.25853159 -7.875 1.375 C-6.29332031 0.98441406 -6.29332031 0.98441406 -4.6796875 0.5859375 C-2 0 -2 0 0 0 Z " fill="#57C035" transform="translate(448,207)"/>
<path d="M0 0 C1.24546405 2.49092811 0.7767578 3.41080733 0 6 C-16.31854001 7.7268898 -32.59302163 9.40075268 -49 10 C-49 9.67 -49 9.34 -49 9 C-37.91762139 6.80012709 -27.09536458 5.61146923 -15.79467773 5.29125977 C-8.8401351 5.14866225 -8.8401351 5.14866225 -2 4 C-0.56362302 2.04836882 -0.56362302 2.04836882 0 0 Z " fill="#58BE39" transform="translate(440,243)"/>
<path d="M0 0 C0.33 0 0.66 0 1 0 C1 9.57 1 19.14 1 29 C-3.02363209 24.97636791 -2.18285867 18.87465546 -2.1875 13.5 C-2.20586914 12.38044922 -2.20586914 12.38044922 -2.22460938 11.23828125 C-2.23578018 7.03061167 -1.92944399 3.84363545 0 0 Z " fill="#3A82E6" transform="translate(109,225)"/>
<path d="M0 0 C-0.33 1.32 -0.66 2.64 -1 4 C-1.61488281 4.03738281 -2.22976563 4.07476562 -2.86328125 4.11328125 C-3.67152344 4.17902344 -4.47976562 4.24476563 -5.3125 4.3125 C-6.11300781 4.37050781 -6.91351563 4.42851562 -7.73828125 4.48828125 C-10.05802796 4.79478998 -10.05802796 4.79478998 -11.38671875 6.4453125 C-13.78701434 8.75843028 -16.26907765 8.92577544 -19.5 9.5625 C-23.35943846 10.33177996 -25.70322364 10.80214909 -29 13 C-32.1875 13.125 -32.1875 13.125 -35 13 C-32.04046018 11.02697346 -29.40617514 9.90941142 -26.08984375 8.65234375 C-24.93548828 8.21212891 -23.78113281 7.77191406 -22.59179688 7.31835938 C-20.78291992 6.63483398 -20.78291992 6.63483398 -18.9375 5.9375 C-16.55047253 5.03076021 -14.16373839 4.12324774 -11.77734375 3.21484375 C-10.18780884 2.61337524 -10.18780884 2.61337524 -8.56616211 1.99975586 C-3.43321123 0 -3.43321123 0 0 0 Z " fill="#64CA42" transform="translate(259,224)"/>
<path d="M0 0 C0.66 0 1.32 0 2 0 C2 0.66 2 1.32 2 2 C2.78375 1.649375 3.5675 1.29875 4.375 0.9375 C5.24125 0.628125 6.1075 0.31875 7 0 C7.66 0.33 8.32 0.66 9 1 C9.125 8.75 9.125 8.75 8 11 C8.66 11.33 9.32 11.66 10 12 C10.72159424 13.64363134 11.39351421 15.31050386 12 17 C11.34 17.33 10.68 17.66 10 18 C8.70337462 15.94047642 7.41264273 13.87762943 6.125 11.8125 C5.76019531 11.23435547 5.39539063 10.65621094 5.01953125 10.06054688 C2.9914748 6.79721967 1.29507949 3.61940638 0 0 Z " fill="#1D70EE" transform="translate(79,329)"/>
<path d="M0 0 C-0.33 0.99 -0.66 1.98 -1 3 C-2.36125 2.938125 -2.36125 2.938125 -3.75 2.875 C-6.88756305 2.77190338 -6.88756305 2.77190338 -9 4 C-11.71458398 5.35729199 -14.01069757 5.13587738 -17 5 C-17 5.66 -17 6.32 -17 7 C-17.78246094 7.06058594 -18.56492187 7.12117187 -19.37109375 7.18359375 C-20.88896484 7.30927734 -20.88896484 7.30927734 -22.4375 7.4375 C-23.44683594 7.51871094 -24.45617187 7.59992188 -25.49609375 7.68359375 C-27.93640779 7.73211468 -27.93640779 7.73211468 -29 9 C-31.67058851 9.14115161 -34.32432238 9.04247107 -37 9 C-37 8.67 -37 8.34 -37 8 C-32.37496756 6.85478288 -27.74849953 5.71562913 -23.12060547 4.58203125 C-21.54695526 4.19566852 -19.97370778 3.80766154 -18.40087891 3.41796875 C-16.1380879 2.85763137 -13.87390725 2.3032525 -11.609375 1.75 C-10.90818542 1.57500977 -10.20699585 1.40001953 -9.48455811 1.21972656 C-6.18188393 0.41871198 -3.42715045 0 0 0 Z " fill="#57C835" transform="translate(430,212)"/>
<path d="M0 0 C0 0.33 0 0.66 0 1 C-4.39197437 1.43279 -8.78446312 1.85980102 -13.17749023 2.28173828 C-14.66819982 2.4257044 -16.15876461 2.571179 -17.64916992 2.71826172 C-25.4446377 3.48657132 -33.15536005 4.21225632 -41 4 C-40.360625 3.690625 -39.72125 3.38125 -39.0625 3.0625 C-37.06389179 2.1654837 -37.06389179 2.1654837 -36 1 C-33.16089708 0.7543084 -30.34500833 0.57189898 -27.5 0.4375 C-26.65590576 0.3950415 -25.81181152 0.35258301 -24.94213867 0.30883789 C-16.62596749 -0.07660807 -8.32280075 -0.09590936 0 0 Z " fill="#59C338" transform="translate(314,260)"/>
<path d="M0 0 C-0.99 0.33 -1.98 0.66 -3 1 C-2.67 2.32 -2.34 3.64 -2 5 C-2.66 5 -3.32 5 -4 5 C-4 4.34 -4 3.68 -4 3 C-11.54253996 3.60386423 -11.54253996 3.60386423 -18 7 C-20.01594582 7.23427778 -22.038474 7.41336124 -24.0625 7.5625 C-25.71958984 7.68818359 -25.71958984 7.68818359 -27.41015625 7.81640625 C-28.26480469 7.87699219 -29.11945313 7.93757813 -30 8 C-25.55248584 5.03499056 -20.64808047 3.86461294 -15.5625 2.3125 C-14.51255859 1.97927734 -13.46261719 1.64605469 -12.38085938 1.30273438 C-11.36958984 0.99271484 -10.35832031 0.68269531 -9.31640625 0.36328125 C-8.39287354 0.07751221 -7.46934082 -0.20825684 -6.51782227 -0.50268555 C-3.91761546 -1.0162724 -2.47332443 -0.8678903 0 0 Z " fill="#4182E3" transform="translate(431,266)"/>
<path d="M0 0 C-2.91719173 2.46787714 -5.04881085 3.43100132 -8.8125 4 C-12.12010411 4.56894648 -14.35417006 5.16742585 -17.4375 6.625 C-22.33237176 8.51424875 -26.81554069 8.25312912 -32 8 C-29.03180159 6.02120106 -27.04716629 5.35080128 -23.6328125 4.4921875 C-22.58222656 4.22792969 -21.53164063 3.96367187 -20.44921875 3.69140625 C-18.80373047 3.28728516 -18.80373047 3.28728516 -17.125 2.875 C-16.03574219 2.59785156 -14.94648438 2.32070312 -13.82421875 2.03515625 C-12.77105469 1.77347656 -11.71789062 1.51179687 -10.6328125 1.2421875 C-9.67262207 1.0035498 -8.71243164 0.76491211 -7.72314453 0.51904297 C-5.07438708 0.0141785 -2.68844856 -0.09717284 0 0 Z " fill="#5CC837" transform="translate(292,246)"/>
<path d="M0 0 C-5.15160675 2.52769839 -8.8419838 3.36334959 -14.68359375 3.29296875 C-15.38396255 3.28872391 -16.08433136 3.28447906 -16.80592346 3.28010559 C-19.01686 3.26347156 -21.22684457 3.2258518 -23.4375 3.1875 C-24.94725235 3.17243326 -26.45701916 3.15874836 -27.96679688 3.14648438 C-31.64483434 3.11361921 -35.32232407 3.06194582 -39 3 C-39 2.67 -39 2.34 -39 2 C-37.09541016 1.92652344 -37.09541016 1.92652344 -35.15234375 1.8515625 C-25.65555037 1.44968961 -16.35644316 0.82084148 -6.96875 -0.6953125 C-4.2493045 -0.97441349 -2.55157622 -0.88804859 0 0 Z " fill="#2C75E0" transform="translate(274,372)"/>
<path d="M0 0 C-2.0625 2.5625 -2.0625 2.5625 -5 5 C-8 4.6875 -8 4.6875 -9.76953125 4.26171875 C-13.90326306 3.77667491 -17.95269703 4.86184668 -22.01171875 5.625 C-24.84503164 5.98055299 -26.32734532 5.77153247 -29 5 C-25.67037957 4.15134403 -22.33581652 3.32393332 -19 2.5 C-18.06542969 2.26152344 -17.13085938 2.02304688 -16.16796875 1.77734375 C-10.61709565 0.41873845 -5.71350121 -0.26950477 0 0 Z " fill="#4FC628" transform="translate(321,240)"/>
<path d="M0 0 C0.33 1.32 0.66 2.64 1 4 C0.0925 4.28875 -0.815 4.5775 -1.75 4.875 C-5.51392586 6.15707036 -5.51392586 6.15707036 -9 8 C-9.33 8.99 -9.66 9.98 -10 11 C-10.66 11 -11.32 11 -12 11 C-12 11.66 -12 12.32 -12 13 C-13.98 13.99 -13.98 13.99 -16 15 C-16.99 14.01 -17.98 13.02 -19 12 C-16.20942528 10.18581449 -13.41735711 8.37394066 -10.625 6.5625 C-9.8309375 6.04623047 -9.036875 5.52996094 -8.21875 4.99804688 C-7.45820313 4.50498047 -6.69765625 4.01191406 -5.9140625 3.50390625 C-5.2123291 3.04830322 -4.5105957 2.5927002 -3.78759766 2.12329102 C-2 1 -2 1 0 0 Z " fill="#2071E9" transform="translate(154,73)"/>
<path d="M0 0 C-0.61875 0.433125 -1.2375 0.86625 -1.875 1.3125 C-4.2197245 2.99740483 -4.2197245 2.99740483 -6 6 C-6.99 6 -7.98 6 -9 6 C-9.66 5.34 -10.32 4.68 -11 4 C-11.99 4 -12.98 4 -14 4 C-14.99 3.34 -15.98 2.68 -17 2 C-11.5206924 -0.05474035 -5.71081484 -1.90360495 0 0 Z " fill="#0665F8" transform="translate(408,274)"/>
<path d="M0 0 C0.33 0.66 0.66 1.32 1 2 C-0.66666667 3.66666667 -2.33333333 5.33333333 -4 7 C-4.70125 7.763125 -5.4025 8.52625 -6.125 9.3125 C-8 11 -8 11 -11 11 C-11.33 11.99 -11.66 12.98 -12 14 C-15.0625 15.1875 -15.0625 15.1875 -18 16 C-14.93922229 12.15216516 -12.05957421 8.85267377 -8 6 C-7.34 6 -6.68 6 -6 6 C-6 5.34 -6 4.68 -6 4 C-4.03852126 2.61061923 -2.03833424 1.2739589 0 0 Z " fill="#347CEA" transform="translate(134,86)"/>
<path d="M0 0 C0.66 0.33 1.32 0.66 2 1 C1.01 2.485 1.01 2.485 0 4 C-0.66 4 -1.32 4 -2 4 C-2.59070014 5.94603274 -2.59070014 5.94603274 -3 8 C-2.67 8.33 -2.34 8.66 -2 9 C-5.44615385 13.8 -5.44615385 13.8 -8.25 14.8125 C-8.8275 14.874375 -9.405 14.93625 -10 15 C-10 15.66 -10 16.32 -10 17 C-10.66 17 -11.32 17 -12 17 C-10.32844203 13.22757683 -7.92645254 10.07212347 -5.4375 6.8125 C-5.02564453 6.26658203 -4.61378906 5.72066406 -4.18945312 5.15820312 C-1.16952328 1.16952328 -1.16952328 1.16952328 0 0 Z " fill="#2F79E7" transform="translate(101,117)"/>
<path d="M0 0 C0.79921875 0.01804688 1.5984375 0.03609375 2.421875 0.0546875 C3.02515625 0.07789063 3.6284375 0.10109375 4.25 0.125 C1.47211365 1.97692423 -0.15660625 2.63205432 -3.3125 3.4140625 C-4.19164062 3.63320312 -5.07078125 3.85234375 -5.9765625 4.078125 C-6.89179688 4.29984375 -7.80703125 4.5215625 -8.75 4.75 C-9.66523438 4.97945312 -10.58046875 5.20890625 -11.5234375 5.4453125 C-18.3421689 7.125 -18.3421689 7.125 -21.75 7.125 C-21.75 6.135 -21.75 5.145 -21.75 4.125 C-20.85796875 4.00382813 -19.9659375 3.88265625 -19.046875 3.7578125 C-17.29117187 3.50644531 -17.29117187 3.50644531 -15.5 3.25 C-14.33984375 3.08757812 -13.1796875 2.92515625 -11.984375 2.7578125 C-8.85269142 2.29461601 -8.85269142 2.29461601 -6.625 1.0625 C-4.28666323 -0.10666838 -2.59668916 -0.07637321 0 0 Z " fill="#55C633" transform="translate(276.75,230.875)"/>
<path d="M0 0 C0.66 0 1.32 0 2 0 C1.88623383 2.12563103 1.75864369 4.2505261 1.625 6.375 C1.55539062 7.55835938 1.48578125 8.74171875 1.4140625 9.9609375 C1 13 1 13 -1 15 C-3.31 13.35 -5.62 11.7 -8 10 C-4.91190305 8.23537317 -3.76687864 8 0 8 C0 5.36 0 2.72 0 0 Z " fill="#2D79E8" transform="translate(423,370)"/>
<path d="M0 0 C1.81293089 0.14037521 3.6253443 0.28744889 5.4375 0.4375 C6.95150391 0.55931641 6.95150391 0.55931641 8.49609375 0.68359375 C11 1 11 1 12 2 C13.34747084 2.23075082 14.70377565 2.41153063 16.0625 2.5625 C17.361875 2.706875 18.66125 2.85125 20 3 C20 3.66 20 4.32 20 5 C21.98 5 23.96 5 26 5 C26 5.66 26 6.32 26 7 C17.04586479 5.75363686 8.63990827 3.63287146 0 1 C0 0.67 0 0.34 0 0 Z " fill="#3078E6" transform="translate(188,420)"/>
<path d="M0 0 C-3.96757553 2.74273687 -7.2366788 3.58695196 -12 4.1875 C-13.794375 4.42533203 -13.794375 4.42533203 -15.625 4.66796875 C-18.45151718 4.94604046 -21.16434075 5.06981737 -24 5 C-20.23552802 2.83346795 -16.17711559 1.86056252 -12 0.8125 C-11.2884375 0.62236328 -10.576875 0.43222656 -9.84375 0.23632812 C-3.40383599 -1.39167253 -3.40383599 -1.39167253 0 0 Z " fill="#65CB35" transform="translate(385,224)"/>
<path d="M0 0 C0 0.99 0 1.98 0 3 C-0.58007812 3.10957031 -1.16015625 3.21914062 -1.7578125 3.33203125 C-6.62865682 4.32066797 -10.5856652 5.64568811 -15 8 C-18.91521903 9.56608761 -20.98807904 10.20529814 -25 9 C-21.21048756 7.49451631 -17.41804969 5.99654686 -13.625 4.5 C-12.54476563 4.07074219 -11.46453125 3.64148438 -10.3515625 3.19921875 C-9.3203125 2.79316406 -8.2890625 2.38710937 -7.2265625 1.96875 C-6.27346191 1.59169922 -5.32036133 1.21464844 -4.33837891 0.82617188 C-2 0 -2 0 0 0 Z " fill="#52BE2D" transform="translate(379,178)"/>
<path d="M0 0 C1.32 0 2.64 0 4 0 C2.71524695 2.63044301 1.34825805 5.1657438 -0.1640625 7.671875 C-0.56367188 8.33574219 -0.96328125 8.99960938 -1.375 9.68359375 C-1.7875 10.36550781 -2.2 11.04742187 -2.625 11.75 C-3.04523438 12.44738281 -3.46546875 13.14476562 -3.8984375 13.86328125 C-4.93095746 15.57632572 -5.96529882 17.28827213 -7 19 C-8.11572266 15.21386719 -8.11572266 15.21386719 -7.07421875 13.2890625 C-6.61660156 12.73992187 -6.15898438 12.19078125 -5.6875 11.625 C-3.29671747 8.54546017 -2.056734 5.78663015 -1 2 C-0.67 1.34 -0.34 0.68 0 0 Z " fill="#2C77E5" transform="translate(133,157)"/>
<path d="M0 0 C0.33 0 0.66 0 1 0 C1.22428282 7.94957992 0.95403042 15.27111181 -1 23 C-1.66 23 -2.32 23 -3 23 C-2.48351265 15.21191437 -1.55123466 7.65074958 0 0 Z " fill="#3176E8" transform="translate(60,201)"/>
<path d="M0 0 C0 1.65 0 3.3 0 5 C-2.31 4.67 -4.62 4.34 -7 4 C-7 4.66 -7 5.32 -7 6 C-15.42857143 9.28571429 -15.42857143 9.28571429 -20 10 C-18.74410188 7.48820377 -17.76749698 7.23024403 -15.25390625 6.0546875 C-14.12178711 5.52294922 -14.12178711 5.52294922 -12.96679688 4.98046875 C-12.17337891 4.61566406 -11.37996094 4.25085938 -10.5625 3.875 C-9.77294922 3.50246094 -8.98339844 3.12992187 -8.16992188 2.74609375 C-2.27034684 0 -2.27034684 0 0 0 Z " fill="#3677E2" transform="translate(176,63)"/>
<path d="M0 0 C1.32 0 2.64 0 4 0 C4 0.66 4 1.32 4 2 C4.99 2.33 5.98 2.66 7 3 C4.36 4.98 1.72 6.96 -1 9 C-2.07349791 4.70600835 -1.79682816 3.80504787 0 0 Z " fill="#1E74F5" transform="translate(362,105)"/>
<path d="M0 0 C4.62675657 1.3922459 8.64686231 3.29520984 12.875 5.625 C14.02742188 6.25664063 15.17984375 6.88828125 16.3671875 7.5390625 C17.67042969 8.26222656 17.67042969 8.26222656 19 9 C19 9.33 19 9.66 19 10 C17.02 10 15.04 10 13 10 C12.67 9.34 12.34 8.68 12 8 C10.33927151 7.31867549 8.672233 6.65257873 7 6 C6.34 5.34 5.68 4.68 5 4 C3.35008418 3.29289322 1.68437744 2.62056011 0 2 C0 1.34 0 0.68 0 0 Z " fill="#3480E8" transform="translate(329,67)"/>
<path d="M0 0 C0.33 0.66 0.66 1.32 1 2 C2.98 1.67 4.96 1.34 7 1 C7 1.66 7 2.32 7 3 C7.99 3.33 8.98 3.66 10 4 C9.67 4.66 9.34 5.32 9 6 C7.35 5.01 5.7 4.02 4 3 C2.68 4.32 1.36 5.64 0 7 C-1.32 5.68 -2.64 4.36 -4 3 C-3 1 -3 1 0 0 Z " fill="#2070EF" transform="translate(389,361)"/>
<path d="M0 0 C2.31 0 4.62 0 7 0 C3.39299028 4.23431576 -1.14586161 6.4692099 -6 9 C-6 7.68 -6 6.36 -6 5 C-5.01 5 -4.02 5 -3 5 C-2.67 4.01 -2.34 3.02 -2 2 C-1.01 2.33 -0.02 2.66 1 3 C0.67 2.01 0.34 1.02 0 0 Z " fill="#317AEB" transform="translate(349,396)"/>
<path d="M0 0 C1.9375 0.375 1.9375 0.375 4 1 C4.33 1.66 4.66 2.32 5 3 C5.99 3.33 6.98 3.66 8 4 C8 4.66 8 5.32 8 6 C8.66 6 9.32 6 10 6 C10.33 7.65 10.66 9.3 11 11 C7.63820226 9.55922954 5.40843732 7.75249979 3 5 C3 4.34 3 3.68 3 3 C2.34 3 1.68 3 1 3 C0.67 2.01 0.34 1.02 0 0 Z " fill="#4286E6" transform="translate(106,367)"/>
<path d="M0 0 C1.32 0 2.64 0 4 0 C4 0.66 4 1.32 4 2 C4.66 2 5.32 2 6 2 C6.33 1.34 6.66 0.68 7 0 C7.99 0.33 8.98 0.66 10 1 C10 3.64 10 6.28 10 9 C9.67 8.01 9.34 7.02 9 6 C7.3364521 5.32558869 5.66933058 4.6599679 4 4 C1.6875 1.875 1.6875 1.875 0 0 Z " fill="#2376EE" transform="translate(338,321)"/>
<path d="M0 0 C-5.625 3 -5.625 3 -9 3 C-9.33 3.99 -9.66 4.98 -10 6 C-13.63 6.33 -17.26 6.66 -21 7 C-18.02380583 4.02380583 -14.42456111 3.18190761 -10.5 1.8125 C-9.71496094 1.52697266 -8.92992187 1.24144531 -8.12109375 0.94726562 C-6.99380859 0.54991211 -6.99380859 0.54991211 -5.84375 0.14453125 C-5.15474609 -0.09934326 -4.46574219 -0.34321777 -3.75585938 -0.59448242 C-2 -1 -2 -1 0 0 Z " fill="#66C73F" transform="translate(303,208)"/>
<path d="M0 0 C2.125 0.375 2.125 0.375 4 1 C3.60196439 3.88575819 3.20990931 4.82189513 0.9375 6.75 C0.298125 7.1625 -0.34125 7.575 -1 8 C-1 7.34 -1 6.68 -1 6 C-1.99 6 -2.98 6 -4 6 C-2.84826645 3.53199953 -1.95216435 1.95216435 0 0 Z " fill="#1473F3" transform="translate(139,148)"/>
<path d="M0 0 C4.29 0 8.58 0 13 0 C10.08149788 1.94566808 8.42377152 2.5152457 5.0625 3.1875 C4.20785156 3.36667969 3.35320312 3.54585938 2.47265625 3.73046875 C-0.01134859 4.00123705 -1.64449502 3.77059444 -4 3 C-2.68 2.67 -1.36 2.34 0 2 C0 1.34 0 0.68 0 0 Z " fill="#347DE8" transform="translate(284,423)"/>
<path d="M0 0 C3 0.5 3 0.5 6 1 C7.051875 1.144375 8.10375 1.28875 9.1875 1.4375 C12 2 12 2 15 4 C15 4.99 15 5.98 15 7 C9.76727367 5.36041242 4.84803364 3.61047965 0 1 C0 0.67 0 0.34 0 0 Z " fill="#2F7CE6" transform="translate(161,409)"/>
<path d="M0 0 C-0.33 5.28 -0.66 10.56 -1 16 C-1.33 16 -1.66 16 -2 16 C-2 13.36 -2 10.72 -2 8 C-2.66 8 -3.32 8 -4 8 C-4 7.34 -4 6.68 -4 6 C-3.34 6 -2.68 6 -2 6 C-1.67 4.68 -1.34 3.36 -1 2 C-3.31 2.33 -5.62 2.66 -8 3 C-5.48696401 0.48696401 -3.51117809 0 0 0 Z " fill="#3D7FE2" transform="translate(439,262)"/>
<path d="M0 0 C0.53109375 0.16371094 1.0621875 0.32742187 1.609375 0.49609375 C4.53876764 1.11356377 7.25822936 1.09501925 10.25 1.0625 C11.86648438 1.04896484 11.86648438 1.04896484 13.515625 1.03515625 C14.74539063 1.01775391 14.74539063 1.01775391 16 1 C10.23174747 4.05076467 4.54078263 5.32703913 -2 5 C-1.01 4.34 -0.02 3.68 1 3 C0.67 2.01 0.34 1.02 0 0 Z " fill="#51CA30" transform="translate(414,193)"/>
<path d="M0 0 C0.33 0.66 0.66 1.32 1 2 C-0.17578125 3.984375 -0.17578125 3.984375 -2 6 C-4.48046875 6.390625 -4.48046875 6.390625 -7.1875 6.25 C-8.53908203 6.19585937 -8.53908203 6.19585937 -9.91796875 6.140625 C-10.60503906 6.09421875 -11.29210937 6.0478125 -12 6 C-9.71540242 3.71540242 -7.87462656 3.02870252 -4.875 1.875 C-3.96492188 1.52179688 -3.05484375 1.16859375 -2.1171875 0.8046875 C-1.06917969 0.40636719 -1.06917969 0.40636719 0 0 Z " fill="#2977ED" transform="translate(304,360)"/>
<path d="M0 0 C0.515625 0.37125 1.03125 0.7425 1.5625 1.125 C0.41796875 2.64453125 0.41796875 2.64453125 -1.4375 4.125 C-4.13671875 4.19921875 -4.13671875 4.19921875 -7.125 3.8125 C-8.61580078 3.63267578 -8.61580078 3.63267578 -10.13671875 3.44921875 C-10.89597656 3.34222656 -11.65523438 3.23523438 -12.4375 3.125 C-8.5804359 0.55362393 -4.59539006 -1.6496272 0 0 Z " fill="#2E7AE9" transform="translate(350.4375,289.875)"/>
<path d="M0 0 C-4.15338192 3.00817758 -7.8190226 3.52025435 -12.8125 3.6875 C-13.50537109 3.72166016 -14.19824219 3.75582031 -14.91210938 3.79101562 C-16.60752849 3.87286344 -18.30373458 3.93812365 -20 4 C-16.76393248 2.21860706 -13.57342755 1.22819081 -10 0.3125 C-8.96875 0.04050781 -7.9375 -0.23148438 -6.875 -0.51171875 C-4.11053448 -0.98122716 -2.60249272 -0.93214283 0 0 Z " fill="#68CA35" transform="translate(336,236)"/>
<path d="M0 0 C1.32 0.66 2.64 1.32 4 2 C1.03 4.64 -1.94 7.28 -5 10 C-5.33 8.68 -5.66 7.36 -6 6 C-5.34 5.01 -4.68 4.02 -4 3 C-2.68 3 -1.36 3 0 3 C0 2.01 0 1.02 0 0 Z " fill="#2375EA" transform="translate(157,132)"/>
<path d="M0 0 C0 3.38877956 -0.93396795 5.80190384 -2 9 C-4.31 9.33 -6.62 9.66 -9 10 C-8.06409496 8.8944811 -7.12620142 7.79064547 -6.1875 6.6875 C-5.66542969 6.07261719 -5.14335938 5.45773438 -4.60546875 4.82421875 C-3.12827531 3.14575321 -1.59960869 1.56117966 0 0 Z " fill="#2A77E9" transform="translate(112,105)"/>
<path d="M0 0 C1.32 0 2.64 0 4 0 C4 0.66 4 1.32 4 2 C5.670625 2.433125 5.670625 2.433125 7.375 2.875 C11 4 11 4 13 6 C12.67 6.99 12.34 7.98 12 9 C9.997193 7.69161864 7.99773901 6.37857806 6 5.0625 C5.42765625 4.68931641 4.8553125 4.31613281 4.265625 3.93164062 C2.82614271 2.98055411 1.41085511 1.99305724 0 1 C0 0.67 0 0.34 0 0 Z " fill="#3379E9" transform="translate(133,392)"/>
<path d="M0 0 C0 0.66 0 1.32 0 2 C2.31 2 4.62 2 7 2 C7.66 3.32 8.32 4.64 9 6 C7.24859857 5.54705135 5.49892656 5.08741252 3.75 4.625 C2.77546875 4.36976562 1.8009375 4.11453125 0.796875 3.8515625 C-1.65837303 3.10401491 -3.75617405 2.22876183 -6 1 C-4 0 -4 0 0 0 Z " fill="#3D83E6" transform="translate(284,107)"/>
<path d="M0 0 C0 0.66 0 1.32 0 2 C-5.22771463 5.04157942 -8.92671312 6.50610724 -15 6 C-12.29954818 4.19969878 -9.93322119 3.06622934 -6.9375 1.875 C-6.05964844 1.52179688 -5.18179687 1.16859375 -4.27734375 0.8046875 C-2 0 -2 0 0 0 Z " fill="#65CB3A" transform="translate(447,152)"/>
<path d="M0 0 C0.66 0 1.32 0 2 0 C2 1.32 2 2.64 2 4 C2.66 4 3.32 4 4 4 C4.33 7.96 4.66 11.92 5 16 C3.13389074 13.20083611 2.31214617 11.18061731 1.375 8 C1.11460938 7.13375 0.85421875 6.2675 0.5859375 5.375 C0 3 0 3 0 0 Z " fill="#2E74E5" transform="translate(63,288)"/>
<path d="M0 0 C4.72065967 1.54269924 9.41664092 3.07794619 14 5 C13.34 5.66 12.68 6.32 12 7 C10.1827669 6.41022253 8.37127957 5.80271547 6.5625 5.1875 C5.55316406 4.85105469 4.54382813 4.51460938 3.50390625 4.16796875 C2.67761719 3.78253906 1.85132813 3.39710937 1 3 C0.67 2.01 0.34 1.02 0 0 Z " fill="#397FE7" transform="translate(315,61)"/>
<path d="M0 0 C0 0.66 0 1.32 0 2 C-0.66 2 -1.32 2 -2 2 C-2.66 3.32 -3.32 4.64 -4 6 C-4.33 5.67 -4.66 5.34 -5 5 C-7.32817964 4.63239269 -9.6618385 4.29758419 -12 4 C-8.36043372 1.57362248 -4.44144233 0 0 0 Z " fill="#3279E9" transform="translate(200,55)"/>
<path d="M0 0 C0.33 0.66 0.66 1.32 1 2 C2.2375 1.62875 3.475 1.2575 4.75 0.875 C8.65289982 -0.12148506 8.65289982 -0.12148506 11.5 0.875 C11.995 1.24625 12.49 1.6175 13 2 C8.46298506 3.45184478 4.81938524 4.23509196 0 4 C0 2.68 0 1.36 0 0 Z " fill="#55C233" transform="translate(224,241)"/>
<path d="M0 0 C0 0.33 0 0.66 0 1 C-2.06081361 1.50690584 -4.12373526 2.00524619 -6.1875 2.5 C-7.91033203 2.91765625 -7.91033203 2.91765625 -9.66796875 3.34375 C-12.56818829 3.91495385 -15.06096385 4.13283779 -18 4 C-17.01 3.67 -16.02 3.34 -15 3 C-15 2.34 -15 1.68 -15 1 C-9.92928099 0.28832014 -5.11791642 -0.10662326 0 0 Z " fill="#5FC843" transform="translate(255,238)"/>
<path d="M0 0 C-0.33 0.99 -0.66 1.98 -1 3 C-1.969375 2.979375 -2.93875 2.95875 -3.9375 2.9375 C-6.87465895 2.64381501 -6.87465895 2.64381501 -8 4 C-10.67058851 4.14115161 -13.32432238 4.04247107 -16 4 C-11.0523795 1.11388804 -5.66834163 0 0 0 Z " fill="#60C83F" transform="translate(430,212)"/>
<path d="M0 0 C1.49080078 0.16628906 1.49080078 0.16628906 3.01171875 0.3359375 C3.77097656 0.43132812 4.53023438 0.52671875 5.3125 0.625 C5.3125 0.955 5.3125 1.285 5.3125 1.625 C3.73324025 2.01680108 2.14881206 2.38780736 0.5625 2.75 C-0.31921875 2.95882812 -1.2009375 3.16765625 -2.109375 3.3828125 C-5.01625493 3.65588304 -6.25411348 3.16008028 -8.6875 1.625 C-5.1388865 -0.74074234 -4.1110475 -0.48365265 0 0 Z " fill="#37C910" transform="translate(391.6875,250.375)"/>
<path d="M0 0 C0 0.99 0 1.98 0 3 C-4.98283716 4.14051606 -9.94468132 5.22225866 -15 6 C-12.61874536 3.61874536 -10.66142433 2.99813759 -7.5 1.875 C-6.5203125 1.52179688 -5.540625 1.16859375 -4.53125 0.8046875 C-2 0 -2 0 0 0 Z " fill="#66CA44" transform="translate(400,170)"/>
<path d="M0 0 C4.08378283 0.74250597 8.01939223 1.82923301 12 3 C12 3.99 12 4.98 12 6 C7.76570244 4.68938409 3.92592596 3.05643741 0 1 C0 0.67 0 0.34 0 0 Z " fill="#3585E7" transform="translate(297,114)"/>
<path d="M0 0 C0.33 1.32 0.66 2.64 1 4 C0.0925 4.28875 -0.815 4.5775 -1.75 4.875 C-4.88825839 5.86222908 -4.88825839 5.86222908 -7.1875 7.1875 C-9 8 -9 8 -12 7 C-8.04 4.69 -4.08 2.38 0 0 Z " fill="#4686E5" transform="translate(154,73)"/>
<path d="M0 0 C3.3 0.99 6.6 1.98 10 3 C10 3.33 10 3.66 10 4 C2.25 5.125 2.25 5.125 0 4 C0 2.68 0 1.36 0 0 Z " fill="#2F7AEB" transform="translate(304,57)"/>
<path d="M0 0 C1.31611677 0.95336021 2.62778961 1.91285774 3.9375 2.875 C4.66839844 3.40867187 5.39929688 3.94234375 6.15234375 4.4921875 C8 6 8 6 9 8 C6.03 7.505 6.03 7.505 3 7 C3 6.34 3 5.68 3 5 C2.34 5 1.68 5 1 5 C0.67 3.35 0.34 1.7 0 0 Z " fill="#3682E6" transform="translate(148,334)"/>
<path d="M0 0 C-1.2065625 0.6496875 -1.2065625 0.6496875 -2.4375 1.3125 C-5.27846354 2.80474002 -5.27846354 2.80474002 -6 6 C-6.99 6 -7.98 6 -9 6 C-9 4.68 -9 3.36 -9 2 C-3.375 -1.125 -3.375 -1.125 0 0 Z " fill="#40C216" transform="translate(234,261)"/>
<path d="M0 0 C-1.32 0.33 -2.64 0.66 -4 1 C-4 1.99 -4 2.98 -4 4 C-6.97 4 -9.94 4 -13 4 C-10.56272708 2.37515139 -8.62713877 1.34310925 -5.9375 0.3125 C-5.24527344 0.04050781 -4.55304688 -0.23148438 -3.83984375 -0.51171875 C-2 -1 -2 -1 0 0 Z " fill="#63CE3D" transform="translate(337,195)"/>
<path d="M0 0 C0.33 1.32 0.66 2.64 1 4 C-0.9375 6.75 -0.9375 6.75 -3 9 C-4.32 8.67 -5.64 8.34 -7 8 C-4.69 5.36 -2.38 2.72 0 0 Z " fill="#3986ED" transform="translate(346,327)"/>
<path d="M0 0 C0 1.65 0 3.3 0 5 C0.66 5 1.32 5 2 5 C1.67 5.66 1.34 6.32 1 7 C-0.17219543 6.21654285 -1.33763668 5.42297164 -2.5 4.625 C-3.1496875 4.18414062 -3.799375 3.74328125 -4.46875 3.2890625 C-4.9740625 2.86367188 -5.479375 2.43828125 -6 2 C-6 1.34 -6 0.68 -6 0 C-2.25 -1.125 -2.25 -1.125 0 0 Z " fill="#5792E7" transform="translate(317,300)"/>
<path d="M0 0 C3.09415757 0.42656082 6.05880129 0.92998438 9 2 C10.5625 4.625 10.5625 4.625 11 7 C6.89188572 5.55007731 3.53144334 3.54592427 0 1 C0 0.67 0 0.34 0 0 Z " fill="#3D85E6" transform="translate(313,122)"/>
<path d="M0 0 C1.65 0 3.3 0 5 0 C5 0.66 5 1.32 5 2 C3.25 3.2890625 3.25 3.2890625 1 4.625 C0.2575 5.07101562 -0.485 5.51703125 -1.25 5.9765625 C-1.8275 6.31429688 -2.405 6.65203125 -3 7 C-3 5.68 -3 4.36 -3 3 C-2.01 2.34 -1.02 1.68 0 1 C0 0.67 0 0.34 0 0 Z " fill="#2A78EB" transform="translate(365,385)"/>
<path d="M0 0 C-0.99 0.33 -1.98 0.66 -3 1 C-2.67 2.32 -2.34 3.64 -2 5 C-2.66 5 -3.32 5 -4 5 C-4 4.34 -4 3.68 -4 3 C-5.65 2.67 -7.3 2.34 -9 2 C-5.945634 -1.054366 -3.9532319 -1.22686507 0 0 Z " fill="#2675E9" transform="translate(431,266)"/>
<path d="M0 0 C0.99 0.495 0.99 0.495 2 1 C1.01 1.495 1.01 1.495 0 2 C0 1.34 0 0.68 0 0 Z M-1 2 C-0.34 2.66 0.32 3.32 1 4 C-2.48058971 6.32039314 -2.98142912 6 -7 6 C-7 6.66 -7 7.32 -7 8 C-7.99 7.67 -8.98 7.34 -10 7 C-4.375 3.125 -4.375 3.125 -1 2 Z " fill="#0E68F0" transform="translate(123,97)"/>
<path d="M0 0 C0 0.99 0 1.98 0 3 C-1.41377782 3.36552803 -2.83120576 3.71695495 -4.25 4.0625 C-5.03890625 4.25972656 -5.8278125 4.45695313 -6.640625 4.66015625 C-9.10394822 5.01497267 -10.65604132 4.76877544 -13 4 C-11.2097939 3.32942113 -9.41778511 2.6636531 -7.625 2 C-6.62726563 1.62875 -5.62953125 1.2575 -4.6015625 0.875 C-2 0 -2 0 0 0 Z " fill="#5DC83C" transform="translate(379,178)"/>
<path d="M0 0 C1.65 1.32 3.3 2.64 5 4 C4.67 4.99 4.34 5.98 4 7 C3.01 7.33 2.02 7.66 1 8 C1 7.01 1 6.02 1 5 C0.34 4.67 -0.32 4.34 -1 4 C-0.34 4 0.32 4 1 4 C0.67 2.68 0.34 1.36 0 0 Z " fill="#3B7CE4" transform="translate(373,95)"/>
<path d="M0 0 C4.875 0.875 4.875 0.875 6 2 C6.04063832 3.66617115 6.042721 5.33388095 6 7 C1.125 2.25 1.125 2.25 0 0 Z " fill="#2877ED" transform="translate(94,353)"/>
<path d="M0 0 C-0.33 0.66 -0.66 1.32 -1 2 C-3.64860427 2.59355614 -6.29197322 2.74209269 -9 3 C-9 2.34 -9 1.68 -9 1 C-5.57367167 -0.61798838 -3.61944899 -1.34053666 0 0 Z " fill="#4EC529" transform="translate(247,230)"/>
<path d="M0 0 C1 2 1 2 0.25 4.9375 C-0.89861935 7.75161742 -1.60483069 9.20362301 -4 11 C-4.66 11 -5.32 11 -6 11 C-4.54955729 6.89041233 -2.48889248 3.56741255 0 0 Z " fill="#4E86E7" transform="translate(88,134)"/>
<path d="M0 0 C-4.95 2.475 -4.95 2.475 -10 5 C-9.67 3.35 -9.34 1.7 -9 0 C-3.375 -1.125 -3.375 -1.125 0 0 Z " fill="#317AE9" transform="translate(183,120)"/>
<path d="M0 0 C-1.90401138 1.90401138 -3.33425686 2.93520439 -6.046875 3.19921875 C-8.03233273 3.1886578 -10.0169914 3.09915043 -12 3 C-8.52582963 0.68388642 -4.04642977 -2.02321489 0 0 Z " fill="#4281E5" transform="translate(330,296)"/>
<path d="M0 0 C-0.33 0.99 -0.66 1.98 -1 3 C-1.66 3 -2.32 3 -3 3 C-3.33 3.99 -3.66 4.98 -4 6 C-4 5.34 -4 4.68 -4 4 C-5.65 4 -7.3 4 -9 4 C-6.43425105 1.43425105 -3.68548192 0 0 0 Z " fill="#50C229" transform="translate(410,166)"/>
<path d="M0 0 C2.97 0 5.94 0 9 0 C6.01353231 1.99097846 3.40312738 2.94124926 0 4 C0 2.68 0 1.36 0 0 Z " fill="#2D7DE7" transform="translate(183,115)"/>
<path d="M0 0 C2.97 0.495 2.97 0.495 6 1 C4.35 2.65 2.7 4.3 1 6 C0.4465236 3.92446352 0 2.15634036 0 0 Z " fill="#2577EA" transform="translate(360,108)"/>
<path d="M0 0 C0 1.65 0 3.3 0 5 C-2.64 4.67 -5.28 4.34 -8 4 C-2.7826087 0 -2.7826087 0 0 0 Z " fill="#327FE7" transform="translate(176,63)"/>
<path d="M0 0 C-2 2 -2 2 -4.3828125 2.1953125 C-5.28773438 2.17210937 -6.19265625 2.14890625 -7.125 2.125 C-8.49011719 2.09792969 -8.49011719 2.09792969 -9.8828125 2.0703125 C-10.58148438 2.04710937 -11.28015625 2.02390625 -12 2 C-7.77897456 -0.19565018 -4.67132787 -1.55710929 0 0 Z " fill="#3A7BE5" transform="translate(219,52)"/>
<path d="M0 0 C-6.75 4 -6.75 4 -9 4 C-9 3.01 -9 2.02 -9 1 C-5.57367167 -0.61798838 -3.61944899 -1.34053666 0 0 Z " fill="#2877E4" transform="translate(341,406)"/>
<path d="M0 0 C1.32 0 2.64 0 4 0 C4.0825 0.61875 4.165 1.2375 4.25 1.875 C4.81258459 4.18437567 4.81258459 4.18437567 7.0625 5.25 C7.701875 5.4975 8.34125 5.745 9 6 C4.58763974 6 3.21615077 3.9302707 0 1 C0 0.67 0 0.34 0 0 Z " fill="#3176E3" transform="translate(119,380)"/>
<path d="M0 0 C-2 2 -2 2 -4.1640625 2.1953125 C-5.38222656 2.16050781 -5.38222656 2.16050781 -6.625 2.125 C-7.44226563 2.10695313 -8.25953125 2.08890625 -9.1015625 2.0703125 C-9.72804688 2.04710937 -10.35453125 2.02390625 -11 2 C-7.06425135 -0.62383243 -4.54354105 -1.51451368 0 0 Z " fill="#317FE8" transform="translate(286,369)"/>
<path d="M0 0 C0 0.33 0 0.66 0 1 C-6.4 3.21538462 -6.4 3.21538462 -9.4375 2.125 C-9.953125 1.75375 -10.46875 1.3825 -11 1 C-6.87831311 -0.62950412 -4.29299643 -1.26264601 0 0 Z " fill="#307EE9" transform="translate(402,275)"/>
<path d="M0 0 C0.66 0.33 1.32 0.66 2 1 C-1.32307692 4.93846154 -1.32307692 4.93846154 -4.75 5.25 C-5.4925 5.1675 -6.235 5.085 -7 5 C-4.63707344 2.47411298 -3.33537489 1.11179163 0 0 Z " fill="#4CC722" transform="translate(280,215)"/>
<path d="M0 0 C0.66 0.99 1.32 1.98 2 3 C0.1875 5 0.1875 5 -2 7 C-2.99 7 -3.98 7 -5 7 C-4.67 5.68 -4.34 4.36 -4 3 C-3.01 3 -2.02 3 -1 3 C-0.67 2.01 -0.34 1.02 0 0 Z " fill="#1A6BED" transform="translate(85,142)"/>
<path d="M0 0 C0.99 0.33 1.98 0.66 3 1 C3.73046875 3.06640625 3.73046875 3.06640625 4.1875 5.5625 C4.34605469 6.38878906 4.50460938 7.21507812 4.66796875 8.06640625 C4.77753906 8.70449219 4.88710937 9.34257812 5 10 C2.35534962 6.8745041 1.15585285 3.91211733 0 0 Z " fill="#3880E4" transform="translate(74,319)"/>
<path d="M0 0 C1.65 0 3.3 0 5 0 C5.66 1.32 6.32 2.64 7 4 C4 4 4 4 1.8125 2 C1.214375 1.34 0.61625 0.68 0 0 Z " fill="#3E81E8" transform="translate(127,387)"/>
<path d="M0 0 C4.455 0.99 4.455 0.99 9 2 C8.34 2.66 7.68 3.32 7 4 C6.01 4 5.02 4 4 4 C4 3.34 4 2.68 4 2 C2.68 2 1.36 2 0 2 C0 1.34 0 0.68 0 0 Z " fill="#3E87E8" transform="translate(195,365)"/>
<path d="M0 0 C3.96 1.98 3.96 1.98 8 4 C4 5 4 5 1 4 C0.67 2.68 0.34 1.36 0 0 Z " fill="#3579E7" transform="translate(172,353)"/>
<path d="M0 0 C2.32472205 2.85306797 3.7508258 5.54074837 5 9 C3.0625 8.4375 3.0625 8.4375 1 7 C0.25 3.375 0.25 3.375 0 0 Z " fill="#3A7EE4" transform="translate(123,299)"/>
<path d="M0 0 C0 0.66 0 1.32 0 2 C-6.28571429 4.42857143 -6.28571429 4.42857143 -10 3 C-3.375 0 -3.375 0 0 0 Z " fill="#4989E8" transform="translate(187,59)"/>
</svg>
